<svg width="804" height="223" viewBox="0 0 804 223" fill="none" xmlns="http://www.w3.org/2000/svg">
<path d="M1 159.651C4.10465 158.691 10.8728 156.627 13.1081 156.051C24.2849 125.81 29.8733 108.889 37.3244 115.729C44.7756 122.57 46.6384 134.09 52.2267 132.65C60.6093 90.5283 68.9919 53.8067 74.5802 57.4069C80.1686 61.007 86.6884 77.9278 92.2767 76.1277C97.8651 74.3276 98.7965 51.6466 109.973 57.4069C121.15 63.1671 113.699 76.1277 123.944 76.1277C130.464 54.8867 139.778 35.0858 150.955 38.686C162.131 42.2862 168.5 45.8863 168.5 51.6466C183.402 38.686 195.51 37.966 202.962 71.0875C208.923 97.5847 209.5 51.6466 228 51.6466C243.5 57.4069 245.957 64.9672 245.957 71.0875C268.31 71.0875 265.516 91.6084 273.899 90.5283C282.281 89.4483 295.321 62.4471 307.429 62.4471C317.116 62.4471 315 43.5 331.645 38.686C354.5 45 361.45 71.0875 368.901 71.0875C378.215 71.0875 378.215 51.6466 393.117 51.6466C408.02 51.6466 419.197 52.3666 419.197 57.4069C419.197 62.4471 438.224 37.3141 444 38.5C449.645 39.6592 453.658 51.6466 460.178 51.6466C466.698 51.6466 472.286 43.7262 484.394 43.7262C494.081 43.7262 500.684 52.8535 502.5 50C511.072 36.533 506.38 1.50334 522.5 2.5C535.693 3.31567 526.307 51.6466 543.072 51.6466C549.5 50 551 46 557.974 43.7262L582.191 46.9664C589.021 41.5661 604.127 41.4746 612.5 29.5C619.951 18.8435 615.759 26.8806 623 15C627.5 10.0953 629.319 9.52467 635.28 12.4048C641.241 15.2849 647.699 21.5252 650.183 24.2853C655.15 24.6454 666.761 24.4293 673.467 20.6852C680.174 16.941 682.5 2.68437 688.37 2.68437C693.5 2.00003 693.958 20.6852 701.409 20.6852C710.723 20.6852 711.655 12.4048 730.283 12.4048C748.91 12.4048 761.64 20.3252 761.95 24.2853L775.921 27.5255C779.026 31.7257 786.166 39.19 789.892 35.4458C793.617 31.7017 799.516 21.1652 802 16.365" stroke="#5A55D2" stroke-width="4"/>
<path d="M13.1081 156.771C10.8728 157.347 4.10465 222.04 1 223H802V17.0848C799.516 21.8851 793.617 32.4215 789.892 36.1657C786.166 39.9099 779.026 32.4455 775.921 28.2454L761.95 25.0052C761.639 21.045 748.91 13.1247 730.283 13.1247C711.655 13.1247 710.723 21.405 701.409 21.405C693.958 21.405 691.785 9.4045 688.37 3.40423C688.37 7.84443 680.173 17.6609 673.467 21.405C666.761 25.1492 655.15 25.3652 650.183 25.0052C647.699 22.2451 641.241 16.0048 635.28 13.1247C629.319 10.2445 630.002 11.9246 622.241 13.1247C622.241 17.0848 619.446 17.5889 611.995 28.2454C624.103 28.2454 589.021 42.286 582.191 47.6862L557.974 44.4461C559.216 42.766 557.974 41.998 543.072 52.3664C526.307 52.3664 536 3.5 520.5 3C509.532 2.64621 511.882 37.4138 503.5 51C502.184 53.1335 494.081 44.4461 484.394 44.4461C472.286 44.4461 466.698 52.3664 460.178 52.3664C453.658 52.3664 448.07 44.4461 445.276 39.4059C442.481 34.3656 419.197 63.1669 419.197 58.1267C419.197 53.0865 408.02 52.3664 393.117 52.3664C378.215 52.3664 378.215 71.8073 368.901 71.8073C361.45 71.8073 346.5 42.5 331.645 39.4059C316 44.5 317.116 63.1669 307.429 63.1669C295.321 63.1669 282.281 90.1682 273.899 91.2482C265.516 92.3283 268.31 71.8073 245.957 71.8073C245.957 65.6871 244 58.1267 227.5 52.3664C213.5 50 206.28 98.3046 200.319 71.8073C192.867 38.6858 180.759 39.4059 165.857 52.3664C165.857 46.6062 162.131 43.006 150.955 39.4059C139.778 35.8057 130.464 55.6066 123.944 76.8476C113.699 76.8476 121.15 63.887 109.973 58.1267C98.7965 52.3665 97.8651 75.0475 92.2767 76.8476C86.6884 78.6477 80.1686 61.7269 74.5802 58.1267C68.9919 54.5266 60.6093 91.2482 52.2267 133.37C46.6384 134.81 44.7756 123.29 37.3244 116.449C29.8733 109.609 24.2849 126.53 13.1081 156.771Z" fill="url(#paint0_linear_127_316)"/>
<defs>
<linearGradient id="paint0_linear_127_316" x1="401.5" y1="2.71991" x2="401.5" y2="160.372" gradientUnits="userSpaceOnUse">
<stop stop-color="#783EFD" stop-opacity="0.46"/>
<stop offset="1" stop-color="#9E74FF" stop-opacity="0"/>
</linearGradient>
</defs>
</svg>
