<svg width="31" height="31" viewBox="0 0 31 31" fill="none" xmlns="http://www.w3.org/2000/svg">
<path fill-rule="evenodd" clip-rule="evenodd" d="M14.8364 6.15858C9.97413 6.49897 6.13538 10.5512 6.13538 15.5C6.13538 20.6719 10.328 24.8646 15.5 24.8646C19.6435 24.8646 23.1591 22.173 24.3929 18.4433C23.4434 18.8356 22.4028 19.0521 21.3125 19.0521C16.8539 19.0521 13.2395 15.4377 13.2395 10.9792C13.2395 9.17196 13.8339 7.50343 14.8364 6.15858ZM4.19788 15.5C4.19788 9.25805 9.25799 4.19794 15.5 4.19794C16.0807 4.19794 16.6518 4.24182 17.2101 4.32661C17.5962 4.38527 17.9094 4.67009 18.0043 5.04897C18.0992 5.42785 17.9573 5.82667 17.6444 6.06044C16.1448 7.18085 15.177 8.96688 15.177 10.9792C15.177 14.3677 17.924 17.1146 21.3125 17.1146C22.7775 17.1146 24.1203 16.6023 25.1753 15.7463C25.4784 15.5003 25.8996 15.4603 26.2436 15.6448C26.5876 15.8294 26.7873 16.2024 26.75 16.591C26.2005 22.3216 21.3741 26.8021 15.5 26.8021C9.25799 26.8021 4.19788 21.742 4.19788 15.5Z" fill="#666666"/>
</svg>
